<mxfile host="app.diagrams.net" agent="Mozilla/5.0 (Windows NT 10.0; Win64; x64) AppleWebKit/537.36 (KHTML, like Gecko) Chrome/135.0.0.0 Safari/537.36" version="26.2.13">
  <diagram name="PÃ¡gina-1" id="wI_CPRQ7y1bMLVppoq2T">
    <mxGraphModel dx="1667" dy="777" grid="1" gridSize="10" guides="1" tooltips="1" connect="1" arrows="1" fold="1" page="1" pageScale="1" pageWidth="827" pageHeight="1169" math="0" shadow="0">
      <root>
        <mxCell id="0" />
        <mxCell id="1" parent="0" />
        <mxCell id="KP-fyS8vQ4n9JcCyky0M-44" style="edgeStyle=orthogonalEdgeStyle;rounded=0;orthogonalLoop=1;jettySize=auto;html=1;exitX=0;exitY=0.5;exitDx=0;exitDy=0;" edge="1" parent="1" source="KP-fyS8vQ4n9JcCyky0M-1" target="KP-fyS8vQ4n9JcCyky0M-43">
          <mxGeometry relative="1" as="geometry" />
        </mxCell>
        <mxCell id="KP-fyS8vQ4n9JcCyky0M-1" value="Convenio" style="rounded=0;whiteSpace=wrap;html=1;" vertex="1" parent="1">
          <mxGeometry x="160" y="450" width="120" height="60" as="geometry" />
        </mxCell>
        <mxCell id="KP-fyS8vQ4n9JcCyky0M-8" style="edgeStyle=orthogonalEdgeStyle;rounded=0;orthogonalLoop=1;jettySize=auto;html=1;exitX=0.25;exitY=0;exitDx=0;exitDy=0;entryX=0.5;entryY=1;entryDx=0;entryDy=0;" edge="1" parent="1" source="KP-fyS8vQ4n9JcCyky0M-2" target="KP-fyS8vQ4n9JcCyky0M-5">
          <mxGeometry relative="1" as="geometry">
            <mxPoint x="680" y="200" as="targetPoint" />
          </mxGeometry>
        </mxCell>
        <mxCell id="KP-fyS8vQ4n9JcCyky0M-10" style="edgeStyle=orthogonalEdgeStyle;rounded=0;orthogonalLoop=1;jettySize=auto;html=1;exitX=0.75;exitY=0;exitDx=0;exitDy=0;entryX=0.5;entryY=1;entryDx=0;entryDy=0;" edge="1" parent="1" source="KP-fyS8vQ4n9JcCyky0M-2">
          <mxGeometry relative="1" as="geometry">
            <mxPoint x="890" y="200" as="targetPoint" />
          </mxGeometry>
        </mxCell>
        <mxCell id="KP-fyS8vQ4n9JcCyky0M-21" style="edgeStyle=orthogonalEdgeStyle;rounded=0;orthogonalLoop=1;jettySize=auto;html=1;exitX=0.5;exitY=0;exitDx=0;exitDy=0;entryX=0.5;entryY=1;entryDx=0;entryDy=0;" edge="1" parent="1" source="KP-fyS8vQ4n9JcCyky0M-2" target="KP-fyS8vQ4n9JcCyky0M-6">
          <mxGeometry relative="1" as="geometry" />
        </mxCell>
        <mxCell id="KP-fyS8vQ4n9JcCyky0M-50" style="edgeStyle=orthogonalEdgeStyle;rounded=0;orthogonalLoop=1;jettySize=auto;html=1;exitX=0;exitY=0.5;exitDx=0;exitDy=0;entryX=1;entryY=0.5;entryDx=0;entryDy=0;" edge="1" parent="1" source="KP-fyS8vQ4n9JcCyky0M-2" target="KP-fyS8vQ4n9JcCyky0M-23">
          <mxGeometry relative="1" as="geometry" />
        </mxCell>
        <mxCell id="KP-fyS8vQ4n9JcCyky0M-2" value="Paciente" style="rounded=0;whiteSpace=wrap;html=1;" vertex="1" parent="1">
          <mxGeometry x="719" y="240" width="120" height="60" as="geometry" />
        </mxCell>
        <mxCell id="KP-fyS8vQ4n9JcCyky0M-14" style="edgeStyle=orthogonalEdgeStyle;rounded=0;orthogonalLoop=1;jettySize=auto;html=1;exitX=0;exitY=0.25;exitDx=0;exitDy=0;entryX=1;entryY=0.5;entryDx=0;entryDy=0;" edge="1" parent="1" source="KP-fyS8vQ4n9JcCyky0M-3" target="KP-fyS8vQ4n9JcCyky0M-11">
          <mxGeometry relative="1" as="geometry" />
        </mxCell>
        <mxCell id="KP-fyS8vQ4n9JcCyky0M-15" style="edgeStyle=orthogonalEdgeStyle;rounded=0;orthogonalLoop=1;jettySize=auto;html=1;exitX=0;exitY=0.5;exitDx=0;exitDy=0;entryX=1;entryY=0.5;entryDx=0;entryDy=0;" edge="1" parent="1" source="KP-fyS8vQ4n9JcCyky0M-3" target="KP-fyS8vQ4n9JcCyky0M-12">
          <mxGeometry relative="1" as="geometry" />
        </mxCell>
        <mxCell id="KP-fyS8vQ4n9JcCyky0M-16" style="edgeStyle=orthogonalEdgeStyle;rounded=0;orthogonalLoop=1;jettySize=auto;html=1;exitX=0;exitY=0.75;exitDx=0;exitDy=0;entryX=1;entryY=0.5;entryDx=0;entryDy=0;" edge="1" parent="1" source="KP-fyS8vQ4n9JcCyky0M-3" target="KP-fyS8vQ4n9JcCyky0M-13">
          <mxGeometry relative="1" as="geometry" />
        </mxCell>
        <mxCell id="KP-fyS8vQ4n9JcCyky0M-53" style="edgeStyle=orthogonalEdgeStyle;rounded=0;orthogonalLoop=1;jettySize=auto;html=1;exitX=1;exitY=0.5;exitDx=0;exitDy=0;entryX=0;entryY=0.5;entryDx=0;entryDy=0;" edge="1" parent="1" source="KP-fyS8vQ4n9JcCyky0M-3" target="KP-fyS8vQ4n9JcCyky0M-36">
          <mxGeometry relative="1" as="geometry" />
        </mxCell>
        <mxCell id="KP-fyS8vQ4n9JcCyky0M-56" style="edgeStyle=orthogonalEdgeStyle;rounded=0;orthogonalLoop=1;jettySize=auto;html=1;exitX=0.5;exitY=1;exitDx=0;exitDy=0;entryX=0.5;entryY=0;entryDx=0;entryDy=0;" edge="1" parent="1" source="KP-fyS8vQ4n9JcCyky0M-3" target="KP-fyS8vQ4n9JcCyky0M-55">
          <mxGeometry relative="1" as="geometry" />
        </mxCell>
        <mxCell id="KP-fyS8vQ4n9JcCyky0M-3" value="Medico" style="rounded=0;whiteSpace=wrap;html=1;" vertex="1" parent="1">
          <mxGeometry x="160" y="240" width="120" height="60" as="geometry" />
        </mxCell>
        <mxCell id="KP-fyS8vQ4n9JcCyky0M-45" style="edgeStyle=orthogonalEdgeStyle;rounded=0;orthogonalLoop=1;jettySize=auto;html=1;exitX=0.25;exitY=0;exitDx=0;exitDy=0;entryX=0.5;entryY=1;entryDx=0;entryDy=0;" edge="1" parent="1" source="KP-fyS8vQ4n9JcCyky0M-4" target="KP-fyS8vQ4n9JcCyky0M-17">
          <mxGeometry relative="1" as="geometry" />
        </mxCell>
        <mxCell id="KP-fyS8vQ4n9JcCyky0M-46" style="edgeStyle=orthogonalEdgeStyle;rounded=0;orthogonalLoop=1;jettySize=auto;html=1;exitX=0.75;exitY=0;exitDx=0;exitDy=0;entryX=0.5;entryY=1;entryDx=0;entryDy=0;" edge="1" parent="1" source="KP-fyS8vQ4n9JcCyky0M-4">
          <mxGeometry relative="1" as="geometry">
            <mxPoint x="565" y="110" as="targetPoint" />
          </mxGeometry>
        </mxCell>
        <mxCell id="KP-fyS8vQ4n9JcCyky0M-4" value="Consulta" style="rounded=0;whiteSpace=wrap;html=1;" vertex="1" parent="1">
          <mxGeometry x="430" y="150" width="120" height="60" as="geometry" />
        </mxCell>
        <mxCell id="KP-fyS8vQ4n9JcCyky0M-5" value="CodConvenio" style="ellipse;whiteSpace=wrap;html=1;" vertex="1" parent="1">
          <mxGeometry x="629" y="150" width="90" height="50" as="geometry" />
        </mxCell>
        <mxCell id="KP-fyS8vQ4n9JcCyky0M-6" value="NumPaciente" style="ellipse;whiteSpace=wrap;html=1;" vertex="1" parent="1">
          <mxGeometry x="734" y="140" width="90" height="50" as="geometry" />
        </mxCell>
        <mxCell id="KP-fyS8vQ4n9JcCyky0M-7" value="Nome" style="ellipse;whiteSpace=wrap;html=1;" vertex="1" parent="1">
          <mxGeometry x="845" y="150" width="90" height="50" as="geometry" />
        </mxCell>
        <mxCell id="KP-fyS8vQ4n9JcCyky0M-11" value="CRM" style="ellipse;whiteSpace=wrap;html=1;" vertex="1" parent="1">
          <mxGeometry x="20" y="180" width="90" height="50" as="geometry" />
        </mxCell>
        <mxCell id="KP-fyS8vQ4n9JcCyky0M-12" value="Nome" style="ellipse;whiteSpace=wrap;html=1;" vertex="1" parent="1">
          <mxGeometry x="20" y="245" width="90" height="50" as="geometry" />
        </mxCell>
        <mxCell id="KP-fyS8vQ4n9JcCyky0M-13" value="Especializacao" style="ellipse;whiteSpace=wrap;html=1;" vertex="1" parent="1">
          <mxGeometry x="20" y="310" width="90" height="50" as="geometry" />
        </mxCell>
        <mxCell id="KP-fyS8vQ4n9JcCyky0M-17" value="CodConvenio" style="ellipse;whiteSpace=wrap;html=1;" vertex="1" parent="1">
          <mxGeometry x="390" y="60" width="90" height="50" as="geometry" />
        </mxCell>
        <mxCell id="KP-fyS8vQ4n9JcCyky0M-18" value="Data/Hora" style="ellipse;whiteSpace=wrap;html=1;" vertex="1" parent="1">
          <mxGeometry x="520" y="60" width="90" height="50" as="geometry" />
        </mxCell>
        <mxCell id="KP-fyS8vQ4n9JcCyky0M-23" value="realiza" style="rhombus;whiteSpace=wrap;html=1;" vertex="1" parent="1">
          <mxGeometry x="570" y="230" width="80" height="80" as="geometry" />
        </mxCell>
        <mxCell id="KP-fyS8vQ4n9JcCyky0M-36" value="atende" style="rhombus;whiteSpace=wrap;html=1;" vertex="1" parent="1">
          <mxGeometry x="310" y="230" width="80" height="80" as="geometry" />
        </mxCell>
        <mxCell id="KP-fyS8vQ4n9JcCyky0M-43" value="CodConvenio" style="ellipse;whiteSpace=wrap;html=1;" vertex="1" parent="1">
          <mxGeometry x="26" y="455" width="90" height="50" as="geometry" />
        </mxCell>
        <mxCell id="KP-fyS8vQ4n9JcCyky0M-51" style="edgeStyle=orthogonalEdgeStyle;rounded=0;orthogonalLoop=1;jettySize=auto;html=1;exitX=0;exitY=0.5;exitDx=0;exitDy=0;" edge="1" parent="1" source="KP-fyS8vQ4n9JcCyky0M-23">
          <mxGeometry relative="1" as="geometry">
            <mxPoint x="510" y="210" as="targetPoint" />
          </mxGeometry>
        </mxCell>
        <mxCell id="KP-fyS8vQ4n9JcCyky0M-52" style="edgeStyle=orthogonalEdgeStyle;rounded=0;orthogonalLoop=1;jettySize=auto;html=1;exitX=1;exitY=0.5;exitDx=0;exitDy=0;entryX=0.325;entryY=1.017;entryDx=0;entryDy=0;entryPerimeter=0;" edge="1" parent="1" source="KP-fyS8vQ4n9JcCyky0M-36" target="KP-fyS8vQ4n9JcCyky0M-4">
          <mxGeometry relative="1" as="geometry" />
        </mxCell>
        <mxCell id="KP-fyS8vQ4n9JcCyky0M-57" style="edgeStyle=orthogonalEdgeStyle;rounded=0;orthogonalLoop=1;jettySize=auto;html=1;exitX=0.5;exitY=1;exitDx=0;exitDy=0;" edge="1" parent="1" source="KP-fyS8vQ4n9JcCyky0M-55" target="KP-fyS8vQ4n9JcCyky0M-1">
          <mxGeometry relative="1" as="geometry" />
        </mxCell>
        <mxCell id="KP-fyS8vQ4n9JcCyky0M-55" value="tem" style="rhombus;whiteSpace=wrap;html=1;" vertex="1" parent="1">
          <mxGeometry x="180" y="330" width="80" height="80" as="geometry" />
        </mxCell>
      </root>
    </mxGraphModel>
  </diagram>
</mxfile>
